<svg xmlns="http://www.w3.org/2000/svg" xmlns:xlink="http://www.w3.org/1999/xlink" width="100" height="100" version="1.1" viewBox="0 0 100 100"><g fill="none" fill-rule="evenodd" stroke="none" stroke-width="1"><path id="Shape" fill="#2A739E" d="M120,108 C120,114.6 114.6,120 108,120 L12,120 C5.4,120 0,114.6 0,108 L0,12 C0,5.4 5.4,0 12,0 L108,0 C114.6,0 120,5.4 120,12 L120,108 L120,108 Z"/><path fill="#FFF" d="m72.7 20.6h-45.4c-1.7 0-3.1 1.4-3.1 3.1v15.4h51.5v-15.4c0-1.7-1.3-3.1-3-3.1z m-27.2 21.7v37.1h27.2c1.7 0 3.1-1.4 3.1-3.1v-34h-30.3z m-21.2 0v34c0 0.9 0.3 1.6 0.9 2.2 0.5 0.6 1.3 0.9 2.1 0.9h15.2v-37.1h-18.2z"/></g></svg>